# xmcd CD database file
#
# Track frame offsets:
#	150
#	15892
#	39992
#	60610
#	84537
#	104325
#	123277
#	138000
#	154625
#	177117
#	193542
#	211380
#	245400
#	266142
#	282622
#
# Disc length: 4054 seconds
#
# Revision: 1
# Processed by: cddbd v1.5.2PL0 Copyright (c) Steve Scherf et al.
# Submitted via: CDex 1.81
#
DISCID=c60fd40f
DTITLE=European Jazz Trio - Best Selection Box [Disc4] Flower
DYEAR=2004
DGENRE=Jazz
TTITLE0=Liebestraume
TTITLE1=The Maiden's Prayer
TTITLE2=Lady Madonna
TTITLE3=Surrey With The Fringe On Top
TTITLE4=Carmen -Habanera-
TTITLE5=In The Still Of The Night
TTITLE6=Ob-La-Di, Ob-La-Da
TTITLE7=Saltarello
TTITLE8=La Bamba
TTITLE9=Angie
TTITLE10=Sweet Sweep
TTITLE11=The NIght Has A Thousand Eyes
TTITLE12=Ballade No.1
TTITLE13=Ungarische Tanze Nr.5
TTITLE14=Yesterdays
EXTD=YEAR: 2004
EXTT0=
EXTT1=
EXTT2=
EXTT3=
EXTT4=
EXTT5=
EXTT6=
EXTT7=
EXTT8=
EXTT9=
EXTT10=
EXTT11=
EXTT12=
EXTT13=
EXTT14=
PLAYORDER=
